<svg width="720" height="1115" viewBox="0 0 720 1115" fill="none" xmlns="http://www.w3.org/2000/svg">
<path d="M384.932 901.317C219.548 789.643 59.5817 521.063 196.562 348.54C323.565 188.583 406.247 344.769 558.576 236.117C710.906 127.466 613.751 -136.3 790.413 -219.541C892.953 -267.857 1025.6 -218.054 1103.28 -82.9905C1180.97 52.0727 1203.71 272.396 1086.43 565.121C975.649 841.634 824.293 941.902 688.624 964.933C552.955 987.964 432.971 933.755 384.932 901.317Z" stroke="#051C45" stroke-width="2.10293" stroke-miterlimit="10"/>
<path d="M1067.68 566.733C966.405 820.512 827.767 913.631 702.953 935.606C578.936 957.213 468.89 908.495 423.642 878.702C269.934 776.747 120.978 529.303 243.115 367.192C355.889 217.507 431.959 353.997 571.517 252.865C575.481 249.971 579.269 246.969 582.892 243.864C681.053 159.821 656.567 0.0625346 719.534 -99.5285C736.627 -126.563 760.059 -149.286 793.985 -164.743C891.573 -209.203 1014.11 -161.978 1085.23 -36.5935C1156.58 89.5013 1175.91 294.892 1067.68 566.733Z" stroke="#051C45" stroke-width="2.10293" stroke-miterlimit="10"/>
<path d="M1048.93 568.343C957.16 799.39 831.24 885.359 717.28 906.279C604.917 926.464 504.726 883.392 462.353 856.086C320.039 764.377 182.37 537.588 289.667 385.843C388.215 246.472 457.961 363.708 584.457 269.611C588.103 266.899 591.577 264.065 594.915 261.155C685.127 182.683 667.481 38.0432 727.732 -51.3175C744.184 -75.7178 766.232 -96.2242 797.558 -109.945C890.213 -150.529 1002.63 -105.904 1067.19 9.8036C1132.18 126.929 1148.1 317.386 1048.93 568.343Z" stroke="#051C45" stroke-width="2.10293" stroke-miterlimit="10"/>
<path d="M1030.17 569.956C947.915 778.269 834.761 857.408 731.609 876.953C630.943 896.026 540.612 858.203 501.064 833.471C370.317 751.706 243.762 545.934 336.22 404.496C420.547 275.495 483.805 373.138 597.397 286.358C600.719 283.82 603.885 281.161 606.936 278.447C689.201 205.545 678.423 76.0266 735.93 -3.10547C751.748 -24.8709 772.416 -43.1445 801.131 -55.148C888.877 -91.8269 991.152 -49.8296 1049.14 56.1996C1107.79 164.358 1120.3 339.882 1030.17 569.956Z" stroke="#051C45" stroke-width="2.10293" stroke-miterlimit="10"/>
<path d="M1011.42 571.567C939.016 757.311 838.249 829.228 745.935 847.626C656.937 865.361 576.502 833.005 539.772 810.855C420.619 738.998 305.159 554.359 382.77 423.147C452.894 304.593 509.632 382.53 610.335 303.105C613.334 300.739 616.19 298.258 618.956 295.739C693.272 228.408 689.4 114.015 744.125 45.1062C759.318 25.9754 778.607 9.95797 804.7 -0.350069C887.567 -33.0862 979.893 6.09735 1031.08 102.597C1083.62 201.635 1092.89 362.561 1011.42 571.567Z" stroke="#051C45" stroke-width="2.10293" stroke-miterlimit="10"/>
<path d="M992.666 573.179C929.828 736.213 841.74 801.038 760.262 818.299C682.933 834.682 612.403 807.797 578.482 788.239C470.956 726.242 366.585 562.892 429.322 441.799C485.28 333.79 535.442 391.875 623.276 319.851C625.951 317.657 628.498 315.353 630.979 313.03C697.346 251.269 700.428 152.017 752.324 93.3174C766.906 76.8239 784.815 63.0873 808.273 54.4475C886.293 25.7113 968.449 62.1523 1013.03 148.993C1059.27 239.043 1065.16 385.088 992.666 573.179Z" stroke="#051C45" stroke-width="2.10293" stroke-miterlimit="10"/>
<path d="M973.913 574.79C920.618 715.104 845.231 772.827 774.591 788.972C708.929 803.98 648.315 782.572 617.193 765.623C521.334 713.422 428.077 571.571 475.876 460.45C517.743 363.12 561.223 401.156 636.218 336.598C638.568 334.575 640.806 332.45 643.003 330.322C701.421 274.132 711.519 190.053 760.523 141.529C774.509 127.68 791.037 116.252 811.846 109.245C885.06 84.5921 956.991 118.22 994.983 195.391C1034.9 276.461 1037.41 407.605 973.913 574.79Z" stroke="#051C45" stroke-width="2.10293" stroke-miterlimit="10"/>
<path d="M955.16 576.401C911.375 693.98 848.721 744.586 788.918 759.645C734.921 773.244 684.242 757.321 655.903 743.008C571.761 700.51 484.846 578.37 522.427 479.101C554.503 394.375 586.954 410.349 649.157 353.344C651.181 351.488 653.113 349.546 655.026 347.613C705.495 296.993 722.685 228.145 768.722 189.739C782.133 178.551 797.275 169.459 815.419 164.042C883.874 143.6 945.512 174.302 976.934 241.787C1010.51 313.895 1009.64 430.108 955.16 576.401Z" stroke="#051C45" stroke-width="2.10293" stroke-miterlimit="10"/>
<path d="M936.408 578.013C902.085 672.833 852.205 716.29 803.246 730.319C760.907 742.451 720.189 732.029 694.614 720.393C622.249 687.469 551.66 589.483 568.98 497.754C583.232 422.277 612.61 419.424 662.097 370.091C663.794 368.4 665.42 366.642 667.048 364.904C709.569 319.855 733.935 266.348 776.92 237.951C789.781 229.454 803.526 222.727 818.992 218.84C882.74 202.819 934.001 230.405 958.885 288.184C986.087 351.35 981.811 452.584 936.408 578.013Z" stroke="#051C45" stroke-width="2.10293" stroke-miterlimit="10"/>
<path d="M917.654 579.624C892.715 651.65 855.665 687.883 817.573 700.993C786.871 711.559 756.159 706.662 733.323 697.777C672.8 674.229 614.194 598.579 615.532 516.405C616.581 451.974 638.125 428.335 675.037 386.837C676.401 385.305 677.727 383.738 679.07 382.196C713.642 342.718 745.25 304.739 785.117 286.162C797.449 280.416 809.786 276.068 822.563 273.637C881.657 262.392 922.437 286.534 940.833 334.58C961.606 388.835 953.876 475.015 917.654 579.624Z" stroke="#051C45" stroke-width="2.10293" stroke-miterlimit="10"/>
<path d="M662.085 535.057C650.048 479.046 664.469 433.396 691.093 399.488C717.717 365.58 756.543 343.415 793.316 334.375C868.768 315.826 908.556 335.597 922.785 380.977C937.013 426.357 925.684 497.347 898.903 581.236C872.122 665.124 820.669 689.645 772.036 675.162C723.401 660.679 677.587 607.19 662.085 535.057Z" stroke="#051C45" stroke-width="2.10293" stroke-miterlimit="10"/>
</svg>
