<svg width="36" height="36" viewBox="0 0 36 36" fill="none" xmlns="http://www.w3.org/2000/svg">
<g id="twemoji:flag-india" clip-path="url(#clip0_1_1406)">
<path id="Vector" d="M0 27C0 28.0609 0.421427 29.0783 1.17157 29.8284C1.92172 30.5786 2.93913 31 4 31H32C33.0609 31 34.0783 30.5786 34.8284 29.8284C35.5786 29.0783 36 28.0609 36 27V22H0V27Z" fill="#138808"/>
<path id="Vector_2" d="M36 14V9C36 7.93913 35.5786 6.92172 34.8284 6.17157C34.0783 5.42143 33.0609 5 32 5H4C2.93913 5 1.92172 5.42143 1.17157 6.17157C0.421427 6.92172 0 7.93913 0 9L0 14H36Z" fill="#FF9933"/>
<path id="Vector_3" d="M0 13.667H36V22.334H0V13.667Z" fill="#F7F7F7"/>
<path id="Vector_4" d="M18 22C20.2091 22 22 20.2091 22 18C22 15.7909 20.2091 14 18 14C15.7909 14 14 15.7909 14 18C14 20.2091 15.7909 22 18 22Z" fill="#000080"/>
<path id="Vector_5" d="M18 21.375C19.864 21.375 21.375 19.864 21.375 18C21.375 16.136 19.864 14.625 18 14.625C16.136 14.625 14.625 16.136 14.625 18C14.625 19.864 16.136 21.375 18 21.375Z" fill="#F7F7F7"/>
<path id="Vector_6" d="M18.1 16.75L18 17.4L17.9 16.75L18 14.8L18.1 16.75ZM17.172 14.909L17.58 16.818L17.845 17.42L17.773 16.767L17.172 14.909ZM16.4 15.229L17.288 16.967L17.7 17.48L17.462 16.867L16.4 15.229ZM15.737 15.737L17.045 17.187L17.576 17.576L17.187 17.045L15.737 15.737ZM15.229 16.4L16.867 17.462L17.48 17.7L16.967 17.288L15.229 16.4ZM14.909 17.172L16.767 17.773L17.42 17.845L16.818 17.58L14.909 17.172ZM14.8 18L16.75 18.1L17.4 18L16.75 17.9L14.8 18ZM14.909 18.828L16.818 18.42L17.42 18.155L16.767 18.227L14.909 18.828ZM15.229 19.6L16.967 18.712L17.48 18.3L16.867 18.538L15.229 19.6ZM15.737 20.263L17.187 18.955L17.576 18.424L17.045 18.813L15.737 20.263ZM16.4 20.771L17.462 19.133L17.7 18.52L17.288 19.033L16.4 20.771ZM17.172 21.091L17.773 19.233L17.845 18.58L17.58 19.182L17.172 21.091ZM18 21.2L18.1 19.25L18 18.6L17.9 19.25L18 21.2ZM18.828 21.091L18.42 19.182L18.155 18.58L18.227 19.233L18.828 21.091ZM19.6 20.771L18.712 19.033L18.3 18.52L18.538 19.133L19.6 20.771ZM20.263 20.263L18.955 18.813L18.424 18.424L18.813 18.955L20.263 20.263ZM20.771 19.6L19.133 18.538L18.52 18.3L19.033 18.712L20.771 19.6ZM21.091 18.828L19.233 18.227L18.58 18.155L19.182 18.42L21.091 18.828ZM21.2 18L19.25 17.9L18.6 18L19.25 18.1L21.2 18ZM21.091 17.172L19.182 17.58L18.58 17.845L19.233 17.773L21.091 17.172ZM20.771 16.4L19.033 17.288L18.52 17.7L19.133 17.462L20.771 16.4ZM20.263 15.737L18.813 17.045L18.424 17.576L18.955 17.187L20.263 15.737ZM19.6 15.229L18.538 16.867L18.3 17.48L18.712 16.967L19.6 15.229ZM18.828 14.909L18.227 16.767L18.155 17.42L18.42 16.818L18.828 14.909Z" fill="#6666B3"/>
<g id="Group">
<path id="Vector_7" d="M17.56 14.859C17.6704 14.859 17.76 14.7694 17.76 14.659C17.76 14.5485 17.6704 14.459 17.56 14.459C17.4495 14.459 17.36 14.5485 17.36 14.659C17.36 14.7694 17.4495 14.859 17.56 14.859Z" fill="#000080"/>
<path id="Vector_8" d="M16.71 15.087C16.8205 15.087 16.91 14.9975 16.91 14.887C16.91 14.7766 16.8205 14.687 16.71 14.687C16.5996 14.687 16.51 14.7766 16.51 14.887C16.51 14.9975 16.5996 15.087 16.71 15.087Z" fill="#000080"/>
<path id="Vector_9" d="M15.9479 15.526C16.0584 15.526 16.1479 15.4364 16.1479 15.326C16.1479 15.2155 16.0584 15.126 15.9479 15.126C15.8375 15.126 15.7479 15.2155 15.7479 15.326C15.7479 15.4364 15.8375 15.526 15.9479 15.526Z" fill="#000080"/>
<path id="Vector_10" d="M15.326 16.1479C15.4364 16.1479 15.526 16.0584 15.526 15.9479C15.526 15.8375 15.4364 15.7479 15.326 15.7479C15.2155 15.7479 15.126 15.8375 15.126 15.9479C15.126 16.0584 15.2155 16.1479 15.326 16.1479Z" fill="#000080"/>
<path id="Vector_11" d="M14.887 16.91C14.9975 16.91 15.087 16.8205 15.087 16.71C15.087 16.5996 14.9975 16.51 14.887 16.51C14.7766 16.51 14.687 16.5996 14.687 16.71C14.687 16.8205 14.7766 16.91 14.887 16.91Z" fill="#000080"/>
<path id="Vector_12" d="M14.659 17.76C14.7694 17.76 14.859 17.6704 14.859 17.56C14.859 17.4495 14.7694 17.36 14.659 17.36C14.5485 17.36 14.459 17.4495 14.459 17.56C14.459 17.6704 14.5485 17.76 14.659 17.76Z" fill="#000080"/>
<path id="Vector_13" d="M14.659 18.64C14.7694 18.64 14.859 18.5504 14.859 18.44C14.859 18.3295 14.7694 18.24 14.659 18.24C14.5485 18.24 14.459 18.3295 14.459 18.44C14.459 18.5504 14.5485 18.64 14.659 18.64Z" fill="#000080"/>
<path id="Vector_14" d="M14.887 19.49C14.9975 19.49 15.087 19.4004 15.087 19.29C15.087 19.1795 14.9975 19.09 14.887 19.09C14.7766 19.09 14.687 19.1795 14.687 19.29C14.687 19.4004 14.7766 19.49 14.887 19.49Z" fill="#000080"/>
<path id="Vector_15" d="M15.326 20.2519C15.4364 20.2519 15.526 20.1624 15.526 20.0519C15.526 19.9415 15.4364 19.8519 15.326 19.8519C15.2155 19.8519 15.126 19.9415 15.126 20.0519C15.126 20.1624 15.2155 20.2519 15.326 20.2519Z" fill="#000080"/>
<path id="Vector_16" d="M15.9479 20.874C16.0584 20.874 16.1479 20.7845 16.1479 20.674C16.1479 20.5635 16.0584 20.474 15.9479 20.474C15.8375 20.474 15.7479 20.5635 15.7479 20.674C15.7479 20.7845 15.8375 20.874 15.9479 20.874Z" fill="#000080"/>
<path id="Vector_17" d="M16.71 21.313C16.8205 21.313 16.91 21.2234 16.91 21.113C16.91 21.0025 16.8205 20.913 16.71 20.913C16.5996 20.913 16.51 21.0025 16.51 21.113C16.51 21.2234 16.5996 21.313 16.71 21.313Z" fill="#000080"/>
<path id="Vector_18" d="M17.56 21.541C17.6704 21.541 17.76 21.4514 17.76 21.341C17.76 21.2305 17.6704 21.141 17.56 21.141C17.4495 21.141 17.36 21.2305 17.36 21.341C17.36 21.4514 17.4495 21.541 17.56 21.541Z" fill="#000080"/>
<path id="Vector_19" d="M18.44 21.541C18.5504 21.541 18.64 21.4514 18.64 21.341C18.64 21.2305 18.5504 21.141 18.44 21.141C18.3295 21.141 18.24 21.2305 18.24 21.341C18.24 21.4514 18.3295 21.541 18.44 21.541Z" fill="#000080"/>
<path id="Vector_20" d="M19.29 21.313C19.4004 21.313 19.49 21.2234 19.49 21.113C19.49 21.0025 19.4004 20.913 19.29 20.913C19.1795 20.913 19.09 21.0025 19.09 21.113C19.09 21.2234 19.1795 21.313 19.29 21.313Z" fill="#000080"/>
<path id="Vector_21" d="M20.0519 20.874C20.1624 20.874 20.2519 20.7845 20.2519 20.674C20.2519 20.5635 20.1624 20.474 20.0519 20.474C19.9415 20.474 19.8519 20.5635 19.8519 20.674C19.8519 20.7845 19.9415 20.874 20.0519 20.874Z" fill="#000080"/>
<path id="Vector_22" d="M20.674 20.2519C20.7845 20.2519 20.874 20.1624 20.874 20.0519C20.874 19.9415 20.7845 19.8519 20.674 19.8519C20.5635 19.8519 20.474 19.9415 20.474 20.0519C20.474 20.1624 20.5635 20.2519 20.674 20.2519Z" fill="#000080"/>
<path id="Vector_23" d="M21.113 19.49C21.2234 19.49 21.313 19.4004 21.313 19.29C21.313 19.1795 21.2234 19.09 21.113 19.09C21.0025 19.09 20.913 19.1795 20.913 19.29C20.913 19.4004 21.0025 19.49 21.113 19.49Z" fill="#000080"/>
<path id="Vector_24" d="M21.341 18.64C21.4514 18.64 21.541 18.5504 21.541 18.44C21.541 18.3295 21.4514 18.24 21.341 18.24C21.2305 18.24 21.141 18.3295 21.141 18.44C21.141 18.5504 21.2305 18.64 21.341 18.64Z" fill="#000080"/>
<path id="Vector_25" d="M21.341 17.76C21.4514 17.76 21.541 17.6704 21.541 17.56C21.541 17.4495 21.4514 17.36 21.341 17.36C21.2305 17.36 21.141 17.4495 21.141 17.56C21.141 17.6704 21.2305 17.76 21.341 17.76Z" fill="#000080"/>
<path id="Vector_26" d="M21.113 16.91C21.2234 16.91 21.313 16.8205 21.313 16.71C21.313 16.5996 21.2234 16.51 21.113 16.51C21.0025 16.51 20.913 16.5996 20.913 16.71C20.913 16.8205 21.0025 16.91 21.113 16.91Z" fill="#000080"/>
<path id="Vector_27" d="M20.674 16.1479C20.7845 16.1479 20.874 16.0584 20.874 15.9479C20.874 15.8375 20.7845 15.7479 20.674 15.7479C20.5635 15.7479 20.474 15.8375 20.474 15.9479C20.474 16.0584 20.5635 16.1479 20.674 16.1479Z" fill="#000080"/>
<path id="Vector_28" d="M20.0519 15.526C20.1624 15.526 20.2519 15.4364 20.2519 15.326C20.2519 15.2155 20.1624 15.126 20.0519 15.126C19.9415 15.126 19.8519 15.2155 19.8519 15.326C19.8519 15.4364 19.9415 15.526 20.0519 15.526Z" fill="#000080"/>
<path id="Vector_29" d="M19.29 15.087C19.4004 15.087 19.49 14.9975 19.49 14.887C19.49 14.7766 19.4004 14.687 19.29 14.687C19.1795 14.687 19.09 14.7766 19.09 14.887C19.09 14.9975 19.1795 15.087 19.29 15.087Z" fill="#000080"/>
<path id="Vector_30" d="M18.44 14.859C18.5504 14.859 18.64 14.7694 18.64 14.659C18.64 14.5485 18.5504 14.459 18.44 14.459C18.3295 14.459 18.24 14.5485 18.24 14.659C18.24 14.7694 18.3295 14.859 18.44 14.859Z" fill="#000080"/>
<path id="Vector_31" d="M18 18.9C18.497 18.9 18.9 18.497 18.9 18C18.9 17.5029 18.497 17.1 18 17.1C17.5029 17.1 17.1 17.5029 17.1 18C17.1 18.497 17.5029 18.9 18 18.9Z" fill="#000080"/>
</g>
</g>
<defs>
<clipPath id="clip0_1_1406">
<rect width="36" height="36" fill="white"/>
</clipPath>
</defs>
</svg>
